<svg xmlns="http://www.w3.org/2000/svg" width="172" height="20" viewBox="0 0 172 20" fill="none">
  <g clip-path="url(#clip0_1679_3773)">
    <path d="M21.3682 17.2442L22.5266 14.539C23.9694 15.7453 26.26 16.6021 28.4748 16.6021C31.2814 16.6021 32.4662 15.5569 32.4662 14.1642C32.4662 10.119 21.7547 12.7716 21.7547 5.80635C21.7547 2.77898 24.0716 0.207397 29.0151 0.207397C31.1782 0.207397 33.4446 0.796871 35.0148 1.86845L33.9586 4.57371C32.3367 3.58319 30.56 3.10003 28.9898 3.10003C26.2084 3.10003 25.0763 4.22635 25.0763 5.64529C25.0763 9.63687 35.7615 7.03793 35.7615 13.9232C35.7615 16.9232 33.4183 19.4948 28.4748 19.4948C25.6682 19.4948 22.8615 18.5842 21.3682 17.2442Z" fill="black"/>
    <path d="M37.7959 9.85149C37.7959 4.25149 41.9158 0.207275 47.4522 0.207275C50.3863 0.207275 52.9096 1.30622 54.5841 3.34201L52.421 5.4578C51.1077 3.98412 49.4858 3.26096 47.606 3.26096C43.8726 3.26096 41.1691 5.99359 41.1691 9.85044C41.1691 13.7083 43.8726 16.4399 47.606 16.4399C49.4858 16.4399 51.1077 15.7178 52.421 14.2168L54.5841 16.3599C52.9096 18.3968 50.3863 19.4946 47.4259 19.4946C41.9158 19.4946 37.7959 15.4494 37.7959 9.85149Z" fill="black"/>
    <path d="M73.818 0.475708V19.2262H70.4711V11.1894H61.1507V19.2262H57.8018V0.476761H61.1497V8.21782H70.4701V0.475708H73.818Z" fill="black"/>
    <path d="M78.6602 0.475708H82.0081V16.2799H91.4317V19.2273H78.6602V0.475708Z" fill="black"/>
    <path d="M94.084 0.475708H97.4309V19.2262H94.085L94.084 0.475708Z" fill="black"/>
    <path d="M115.816 16.3073V19.2273H102.298V0.475708H115.454V3.39571H105.645V8.27044H114.348V11.1368H105.645V16.3073H115.816Z" fill="black"/>
    <path d="M131.78 9.63675H134.946V17.1104C133.068 18.6915 130.441 19.4946 127.891 19.4946C122.304 19.4946 118.185 15.4494 118.185 9.85149C118.185 4.25149 122.304 0.207275 127.943 0.207275C130.956 0.207275 133.479 1.25254 135.178 3.26096L133.068 5.40412C131.651 3.93043 130.029 3.26096 128.098 3.26096C124.261 3.26096 121.558 5.96622 121.558 9.85044C121.558 13.6557 124.261 16.4399 128.072 16.4399C129.36 16.4399 130.621 16.1736 131.78 15.4768V9.63675Z" fill="black"/>
    <path d="M152.869 16.3073V19.2273H139.352V0.475708H152.509V3.39571H142.698V8.27044H151.402V11.1368H142.698V16.3073H152.869Z" fill="black"/>
    <path d="M168.318 7.14518C168.318 9.50307 166.799 10.8957 163.864 10.8957H159.95V3.42202H163.864C166.798 3.42202 168.318 4.78729 168.318 7.14518ZM172 19.2273L167.854 13.0652C170.301 12.0736 171.691 9.98518 171.691 7.14518C171.691 2.99255 168.755 0.475708 164.018 0.475708H156.603V19.2262H159.95V13.762H164.018C164.25 13.762 164.481 13.762 164.713 13.7347L168.396 19.2262L172 19.2273Z" fill="black"/>
    <path d="M4.47919 0.0418623C4.42254 0.168178 4.38105 0.270283 4.33451 0.368178C3.66675 1.77344 3.29644 3.25976 3.27418 4.82818C3.25496 6.32607 3.56658 7.76081 4.12406 9.13765C4.53686 10.1555 4.96383 11.1671 5.36651 12.1903C5.64677 12.8987 5.88251 13.624 5.98875 14.3903C6.16054 15.5901 6.03731 16.8156 5.63058 17.9524C5.41912 18.5419 5.13279 19.1008 4.87985 19.6745C4.80701 19.8408 4.69976 19.9366 4.5055 19.9355C3.55141 19.9271 2.59731 19.9303 1.64221 19.9292C1.61185 19.9292 1.5815 19.9145 1.51371 19.8977C1.57239 19.7703 1.62298 19.6503 1.68166 19.5366C2.07625 18.7682 2.42329 17.9829 2.61046 17.1271C2.95446 15.5587 2.79056 14.0324 2.24016 12.5471C1.94472 11.7482 1.59263 10.9713 1.26684 10.185C0.839876 9.14713 0.437193 8.10081 0.209546 6.99344C-0.219442 4.90713 0.0233816 2.89134 0.817617 0.937652C0.890464 0.76081 0.979499 0.592389 1.04324 0.412389C1.1515 0.099757 1.35891 -0.00866406 1.67053 0.000809621C2.32009 0.0187044 2.97065 0.0165991 3.62122 0.019757C3.82661 0.0208096 4.03301 0.0123886 4.23839 0.0123886C4.31023 0.0134412 4.38206 0.0302833 4.47919 0.0418623Z" fill="#DA000F"/>
    <path d="M10.2227 0.0842355C10.1792 0.185288 10.1357 0.295814 10.0861 0.403183C9.49525 1.66318 9.12798 2.9895 9.05007 4.3916C8.96839 5.80407 9.17885 7.21833 9.66725 8.53897C10.0234 9.50739 10.4423 10.4495 10.8247 11.4074C11.1313 12.1779 11.449 12.9442 11.6351 13.76C11.9872 15.3032 11.8405 16.8084 11.2851 18.2716C11.1019 18.7516 10.8601 19.2084 10.6456 19.6758C10.5687 19.8411 10.4534 19.9358 10.2642 19.9348C9.3101 19.9284 8.356 19.9305 7.40292 19.9284C7.37257 19.9284 7.34424 19.9105 7.27847 19.8905C7.33209 19.7727 7.37762 19.6642 7.43024 19.559C7.79245 18.8379 8.13341 18.1084 8.32969 17.3169C8.72428 15.7221 8.58466 14.159 8.02819 12.6348C7.71353 11.7716 7.33817 10.9316 6.99315 10.0811C6.59958 9.11476 6.21915 8.14423 5.99758 7.11581C5.51901 4.90108 5.78915 2.77055 6.67647 0.711604C6.73819 0.567393 6.808 0.427393 6.86972 0.283183C6.90117 0.197852 6.95772 0.125038 7.0313 0.0751331C7.10489 0.0252282 7.19175 0.00078349 7.27948 0.00528809C8.23257 0.00844599 9.18666 0.0158144 10.1408 0.0252881C10.158 0.0252881 10.1741 0.048446 10.2217 0.0831828L10.2227 0.0842355Z" fill="#DA000F"/>
    <path d="M13.0865 19.8916L13.3698 19.3232C13.8646 18.3358 14.2268 17.3063 14.3472 16.1905C14.453 15.2571 14.3618 14.3109 14.0801 13.4179C13.817 12.5853 13.4892 11.7727 13.1816 10.9548C12.8032 9.94739 12.3631 8.96107 12.0404 7.93581C11.2208 5.32634 11.5244 2.79686 12.6525 0.347389C12.7516 0.1316 12.8953 0.00423157 13.126 0.00423157C14.0892 0.00212631 15.0524 0.00423157 16.055 0.00423157C16.0186 0.113705 16.0045 0.186337 15.9741 0.249495C15.2775 1.6587 14.8944 3.21281 14.8531 4.79686C14.8179 6.09831 15.0447 7.39303 15.5188 8.59792C16.0075 9.8516 16.5103 11.099 17.0122 12.3474C17.4796 13.5095 17.7083 14.7158 17.6203 15.979C17.5262 17.3211 17.0891 18.5484 16.4456 19.7053C16.3626 19.8548 16.2513 19.9348 16.0783 19.9337C15.1242 19.9295 14.1701 19.9305 13.216 19.9284C13.1867 19.9284 13.1574 19.9127 13.0865 19.8916Z" fill="#DA000F"/>
  </g>
  <defs>
    <clipPath id="clip0_1679_3773">
      <rect width="172" height="20" fill="white"/>
    </clipPath>
  </defs>
</svg>