<svg xmlns="http://www.w3.org/2000/svg" viewBox="0 0 48 48" fill="none">
  <!-- Background -->
  <rect width="48" height="48" rx="8" fill="#E30A1A"/>
  
  <!-- Arrow Icon (simplified from logo) -->
  <path d="M24 10L32 18H28V28H32L24 36L16 28H20V18H16L24 10Z" fill="white"/>
  
  <!-- D Letters -->
  <path d="M14 12H16C18.2 12 20 13.8 20 16C20 18.2 18.2 20 16 20H14V12ZM16 18.5C17.4 18.5 18.5 17.4 18.5 16C18.5 14.6 17.4 13.5 16 13.5H15.5V18.5H16Z" fill="white" opacity="0.9"/>
  <path d="M28 28H30C32.2 28 34 29.8 34 32C34 34.2 32.2 36 30 36H28V28ZM30 34.5C31.4 34.5 32.5 33.4 32.5 32C32.5 30.6 31.4 29.5 30 29.5H29.5V34.5H30Z" fill="white" opacity="0.9"/>
</svg>